<svg xmlns="http://www.w3.org/2000/svg" version="1.1" xmlns:xlink="http://www.w3.org/1999/xlink" xmlns:svgjs="http://svgjs.dev/svgjs" width="1500" height="1500" viewBox="0 0 1500 1500"><rect width="1500" height="1500" fill="#ffffff"></rect><g transform="matrix(0.6666666666666666,0,0,0.6666666666666666,250.00001779244434,187.66666666666674)"><svg viewBox="0 0 320 360" data-background-color="#398378" preserveAspectRatio="xMidYMid meet" height="1687" width="1500" xmlns="http://www.w3.org/2000/svg" xmlns:xlink="http://www.w3.org/1999/xlink"><g id="tight-bounds" transform="matrix(1,0,0,1,0.000005693582238563977,0)"><svg viewBox="0 0 320 360" height="360" width="320"><g><svg></svg></g><g><svg viewBox="0 0 320 360" height="360" width="320"><g><path transform="translate(-8.74414,11.24127) scale(3.37517,3.37517)" d="M89.9 29.89c-2.6-3.17-7.52-4.8-12.74-6.52-2.24-0.74-4.55-1.51-6.81-2.44-2.28-0.94-4.52-2.15-6.7-3.31-4.43-2.38-9.01-4.84-13.66-4.84-4.64 0-9.22 2.46-13.65 4.84-2.18 1.17-4.43 2.38-6.71 3.32-2.25 0.93-4.57 1.69-6.81 2.44-5.22 1.73-10.14 3.36-12.74 6.52-3.47 4.23-3.39 10.5-3.31 17.13 0.01 1 0.02 1.99 0.02 2.97 0 0.98-0.01 1.97-0.03 2.97-0.08 6.64-0.16 12.9 3.31 17.14 2.6 3.16 7.52 4.79 12.73 6.52 2.24 0.74 4.55 1.51 6.82 2.44 2.28 0.94 4.52 2.14 6.69 3.31 4.44 2.39 9.02 4.85 13.66 4.85 4.65 0 9.23-2.46 13.66-4.84 2.18-1.17 4.42-2.38 6.7-3.31 2.25-0.93 4.55-1.69 6.78-2.43 5.25-1.74 10.17-3.37 12.77-6.53 3.47-4.23 3.39-10.5 3.31-17.13-0.01-1.01-0.03-2-0.03-2.98 0-0.98 0.01-1.97 0.03-2.96 0.11-6.66 0.19-12.93-3.29-17.16zM93.12 27.25c-4.66-5.68-13.57-7.03-21.18-10.17-6.81-2.8-13.74-8.47-21.94-8.47-8.2 0-15.13 5.67-21.94 8.47-7.62 3.14-16.52 4.49-21.18 10.17-5.06 6.16-4.24 14.85-4.24 22.75 0 7.89-0.82 16.59 4.23 22.75 4.66 5.68 13.57 7.03 21.18 10.17 6.81 2.81 13.74 8.47 21.94 8.47 8.2 0 15.13-5.66 21.94-8.47 7.62-3.14 16.52-4.49 21.18-10.17 5.05-6.16 4.23-14.85 4.23-22.75 0.02-7.9 0.84-16.59-4.22-22.75zM94.4 52.94c0.09 6.88 0.17 13.35-3.58 17.92-2.82 3.43-7.9 5.12-13.28 6.9-2.24 0.74-4.53 1.5-6.73 2.41-2.22 0.91-4.43 2.1-6.57 3.25-4.58 2.46-9.29 4.99-14.24 4.99-4.95 0-9.66-2.53-14.22-4.98-2.15-1.16-4.37-2.35-6.59-3.26-2.23-0.92-4.52-1.68-6.74-2.41-5.39-1.78-10.47-3.47-13.28-6.9-3.74-4.56-3.66-11.04-3.58-17.9 0.01-1 0.03-1.98 0.03-2.96 0-0.98-0.01-1.96-0.02-2.96-0.09-6.86-0.17-13.34 3.58-17.9 2.82-3.43 7.9-5.11 13.28-6.9 2.23-0.74 4.52-1.5 6.74-2.41 2.22-0.92 4.44-2.11 6.59-3.26 4.56-2.45 9.28-4.99 14.22-4.99 4.94 0 9.66 2.53 14.22 4.98 2.15 1.16 4.37 2.35 6.59 3.26 2.22 0.92 4.52 1.67 6.73 2.41 5.38 1.78 10.47 3.47 13.28 6.9 3.75 4.57 3.67 11.04 3.58 17.9-0.01 1.01-0.03 1.99-0.03 2.96 0 0.98 0.01 1.96 0.02 2.95z" fill="#000000" fill-rule="nonzero" stroke="none" stroke-width="1" stroke-linecap="butt" stroke-linejoin="miter" stroke-miterlimit="10" stroke-dasharray="" stroke-dashoffset="0" font-family="none" font-weight="none" font-size="none" text-anchor="none" style="mix-blend-mode: normal" data-fill-palette-color="tertiary"></path></g><g transform="matrix(1,0,0,1,72.0649503442117,108)"><svg viewBox="0 0 175.8700993115766 144" height="144" width="175.8700993115766"><g><svg viewBox="0 0 175.8700993115766 144" height="144" width="175.8700993115766"><g><svg viewBox="0 0 192.00000000000003 157.20693914556787" height="144" width="175.8700993115766"><g transform="matrix(1,0,0,1,0,94.88999847209331)"><svg viewBox="0 0 192.00000000000003 62.31694067347457" height="62.31694067347457" width="192.00000000000003"><g id="textblocktransform"><svg viewBox="0 0 192.00000000000003 62.31694067347457" height="62.31694067347457" width="192.00000000000003" id="textblock"><g><svg viewBox="0 0 192.00000000000003 37.14052449783739" height="37.14052449783739" width="192.00000000000003"><g transform="matrix(1,0,0,1,0,0)"><svg width="192.00000000000003" viewBox="1.828871480559 -35.86 185.391128519441 35.86" height="37.14052449783739" data-palette-color="#398378"><path d="M22.75-33.08L22.75-33.08Q24.1-31.2 25.5-28.23 26.9-25.27 28.22-21.73 29.54-18.19 30.6-14.49 31.67-10.79 32.35-7.37 33.03-3.96 33.13-1.29L33.13-1.29Q33.15 0 31.96 0L31.96 0 26.05 0Q24.9 0 24.85-1.15L24.85-1.15Q24.76-3.88 23.97-7.79L23.97-7.79 10.64-7.79Q9.96-3.98 9.86-1.15L9.86-1.15Q9.81 0 8.62 0L8.62 0 2.83 0Q2.39 0 2.1-0.26 1.81-0.51 1.83-1.15L1.83-1.15Q1.95-3.86 2.62-7.31 3.3-10.77 4.37-14.48 5.44-18.19 6.76-21.74 8.08-25.29 9.5-28.25 10.91-31.2 12.26-33.08L12.26-33.08Q12.96-34.08 13.76-34.55 14.55-35.01 15.72-35.01L15.72-35.01 19.24-35.01Q20.43-35.01 21.24-34.55 22.05-34.08 22.75-33.08ZM17.38-27.29L17.24-27.29Q15.63-24.73 14.28-21.17 12.94-17.6 11.96-13.84L11.96-13.84 22.56-13.84Q21.53-17.6 20.19-21.17 18.85-24.73 17.38-27.29L17.38-27.29ZM46.75-25.93L46.75-1.29Q46.75-0.56 46.45-0.28 46.14 0 45.41 0L45.41 0 40.21 0Q39.48 0 39.17-0.28 38.86-0.56 38.86-1.29L38.86-1.29 38.86-28.47Q38.86-30.91 39.32-32.34 39.77-33.76 41.07-34.39 42.38-35.01 44.89-35.01L44.89-35.01 51.36-35.01Q64.11-35.01 64.11-25.22L64.11-25.22Q64.11-22.24 63.11-20.34 62.11-18.43 60.62-17.37 59.13-16.31 57.69-15.77L57.69-15.77 57.69-15.65Q59.32-14.58 60.8-12.83 62.28-11.08 63.47-9.05 64.67-7.01 65.5-5.02 66.33-3.03 66.65-1.46L66.65-1.46Q66.79-0.73 66.66-0.37 66.53 0 65.82 0L65.82 0 60.18 0Q59.54 0 59.07-0.27 58.59-0.54 58.2-1.51L58.2-1.51Q56.35-6.18 53.93-9.12 51.51-12.06 49.27-13.84L49.27-13.84Q47.82-14.99 47.82-15.48L47.82-15.48Q47.82-15.87 48.29-16.55L48.29-16.55Q48.58-16.97 49.14-17.55 49.7-18.14 50.12-18.43L50.12-18.43Q50.53-18.73 50.79-18.8 51.05-18.87 51.58-18.87L51.58-18.87Q53.39-18.87 54.6-20.12 55.81-21.36 55.81-24.05L55.81-24.05Q55.81-26.59 54.53-27.77 53.24-28.96 51-28.96L51-28.96 49.53-28.96Q47.92-28.96 47.34-28.27 46.75-27.59 46.75-25.93L46.75-25.93ZM79.37-14.84L79.37-1.29Q79.37-0.56 79.06-0.28 78.75 0 78.02 0L78.02 0 72.82 0Q72.09 0 71.78-0.28 71.48-0.56 71.48-1.29L71.48-1.29 71.48-31.1Q71.48-31.81 71.72-32.18L71.72-32.18Q72.82-33.79 74.8-35.57L74.8-35.57Q75.17-35.86 75.43-35.86L75.43-35.86Q75.73-35.86 76.04-35.57L76.04-35.57Q77.12-34.64 77.85-33.8 78.58-32.96 79.12-32.18L79.12-32.18Q79.37-31.79 79.37-31.1L79.37-31.1 79.37-20.97 79.93-20.97Q82.98-20.97 84.88-21.81 86.79-22.66 87.81-24.08 88.84-25.51 89.22-27.27 89.59-29.03 89.59-30.86L89.59-30.86 89.59-31.1Q89.59-31.81 89.84-32.18L89.84-32.18Q90.94-33.79 92.91-35.57L92.91-35.57Q93.28-35.86 93.55-35.86L93.55-35.86Q93.84-35.86 94.16-35.57L94.16-35.57Q95.23-34.64 95.97-33.8 96.7-32.96 97.24-32.18L97.24-32.18Q97.48-31.79 97.48-31.1L97.48-31.1 97.48-30.86Q97.48-28.88 97.09-26.77 96.7-24.66 95.71-22.78 94.72-20.9 92.93-19.57 91.13-18.24 88.3-17.82L88.3-17.82 88.3-17.65Q90.84-16.85 92.83-14.98 94.82-13.11 96.27-10.72 97.72-8.33 98.65-5.91 99.58-3.49 99.97-1.59L99.97-1.59Q100.17-0.68 99.97-0.34 99.78 0 99.04 0L99.04 0 93.06 0Q91.82 0 91.6-1.15L91.6-1.15Q91.23-3 90.17-5.33 89.11-7.67 87.52-9.84 85.93-12.01 83.99-13.43 82.05-14.84 79.93-14.84L79.93-14.84 79.37-14.84ZM123.92-33.08L123.92-33.08Q125.26-31.2 126.66-28.23 128.07-25.27 129.39-21.73 130.71-18.19 131.77-14.49 132.83-10.79 133.51-7.37 134.2-3.96 134.29-1.29L134.29-1.29Q134.32 0 133.12 0L133.12 0 127.21 0Q126.07 0 126.02-1.15L126.02-1.15Q125.92-3.88 125.14-7.79L125.14-7.79 111.81-7.79Q111.13-3.98 111.03-1.15L111.03-1.15Q110.98 0 109.78 0L109.78 0 104 0Q103.56 0 103.26-0.26 102.97-0.51 103-1.15L103-1.15Q103.12-3.86 103.79-7.31 104.46-10.77 105.53-14.48 106.61-18.19 107.93-21.74 109.25-25.29 110.66-28.25 112.08-31.2 113.42-33.08L113.42-33.08Q114.13-34.08 114.92-34.55 115.72-35.01 116.89-35.01L116.89-35.01 120.4-35.01Q121.6-35.01 122.4-34.55 123.21-34.08 123.92-33.08ZM118.55-27.29L118.4-27.29Q116.79-24.73 115.45-21.17 114.1-17.6 113.13-13.84L113.13-13.84 123.72-13.84Q122.7-17.6 121.35-21.17 120.01-24.73 118.55-27.29L118.55-27.29ZM147.48-25.29L147.48-1.29Q147.48-0.56 147.19-0.28 146.91 0 146.21 0L146.21 0 141.3 0Q140.62 0 140.32-0.28 140.03-0.56 140.03-1.29L140.03-1.29 140.03-32.23Q140.03-33.67 140.59-34.34 141.15-35.01 142.57-35.01L142.57-35.01 144.84-35.01Q146.08-35.01 147.19-34.68 148.31-34.35 149.56-33.2 150.82-32.06 152.49-29.65 154.16-27.25 156.53-23.1L156.53-23.1Q158.8-19.14 160.18-16.77 161.56-14.4 162.32-13.16 163.08-11.91 163.45-11.38 163.83-10.84 164.08-10.5L164.08-10.5 164.08-31.1Q164.08-31.81 164.3-32.18L164.3-32.18Q165.35-33.79 167.2-35.57L167.2-35.57Q167.57-35.86 167.81-35.86L167.81-35.86Q168.08-35.86 168.4-35.57L168.4-35.57Q169.4-34.64 170.09-33.8 170.79-32.96 171.3-32.18L171.3-32.18Q171.52-31.79 171.52-31.1L171.52-31.1 171.52-2.03Q171.52-0.93 171.11-0.46 170.69 0 169.59 0L169.59 0 167.25 0Q166.2 0 165.1-0.35 164-0.71 162.61-1.97 161.22-3.22 159.32-5.88 157.41-8.54 154.73-13.16L154.73-13.16Q152.46-17.09 151.1-19.41 149.75-21.73 149.04-22.91 148.33-24.1 148.01-24.57 147.7-25.05 147.48-25.29L147.48-25.29ZM187.22-31.1L187.22-1.29Q187.22-0.56 186.91-0.28 186.61 0 185.88 0L185.88 0 180.68 0Q179.94 0 179.64-0.28 179.33-0.56 179.33-1.29L179.33-1.29 179.33-31.1Q179.33-31.81 179.58-32.18L179.58-32.18Q180.68-33.79 182.65-35.57L182.65-35.57Q183.02-35.86 183.29-35.86L183.29-35.86Q183.58-35.86 183.9-35.57L183.9-35.57Q184.97-34.64 185.71-33.8 186.44-32.96 186.97-32.18L186.97-32.18Q187.22-31.79 187.22-31.1L187.22-31.1Z" opacity="1" transform="matrix(1,0,0,1,0,0)" fill="#ffffff" class="wordmark-text-0" data-fill-palette-color="quaternary" id="text-0"></path></svg></g></svg></g><g transform="matrix(1,0,0,1,36.672000000000004,45.90851095918885)"><svg viewBox="0 0 118.65600000000002 16.408429714285717" height="16.408429714285717" width="118.65600000000002"><g transform="matrix(1,0,0,1,0,0)"><svg width="118.65600000000002" viewBox="2.75 -35.8 393.71 54.45" height="16.408429714285717" data-palette-color="#398378"><path d="M7.3-3.55L9.35-3.55Q6.65-6.4 6.65-11.6L6.65-11.6Q6.8-17.5 10.2-20.7L10.2-20.7Q13.2-23.45 18.1-23.55L18.1-23.55Q22.2-23.55 24.7-21.5L24.7-21.5Q27.7-19.1 27.7-14.5L27.7-14.5 27.7-5.45Q27.7-4.55 28.2-4.05L28.2-4.05Q28.6-3.6 29.15-3.55L29.15-3.55 29.3-3.55 29.3 0 28.05 0Q27.2 0 26.45-0.3L26.45-0.3Q25.35-0.65 24.45-1.75L24.45-1.75Q23.1-0.85 21.3-0.4L21.3-0.4Q19.6 0 16.2 0L16.2 0 8.9 0Q7 0 7 1.9L7 1.9 7 16.9 4.85 18.65 2.75 18.65 2.75 1.15Q2.75-0.9 4.2-2.3L4.2-2.3Q5.55-3.55 7.3-3.55L7.3-3.55ZM23.4-4.7L23.4-14.5Q23.4-16.75 22.15-18.3L22.15-18.3Q20.65-20 18-20L18-20Q14.85-20 12.88-17.73 10.9-15.45 10.9-11.8L10.9-11.8Q10.9-7.85 12.85-5.68 14.8-3.5 18.4-3.5L18.4-3.5Q21.45-3.5 23.4-4.7L23.4-4.7ZM37.9-23L42.15-23 42.15-4.75Q42.15-4.15 42-3.55L42-3.55 44.65-3.55 44.65 0 42.7 0 41.25-1.75 41.1-1.75Q39.75 0 37.6 0L37.6 0 28.9 0 28.9-3.55 36-3.55Q36.8-3.55 37.3-4.05L37.3-4.05Q37.9-4.6 37.9-5.45L37.9-5.45 37.9-23ZM33.6 5.2L33.6 5.2Q34.6 5.2 35.32 5.93 36.05 6.65 36.05 7.65L36.05 7.65Q36.05 8.7 35.32 9.43 34.6 10.15 33.6 10.15L33.6 10.15Q32.6 10.15 31.87 9.43 31.15 8.7 31.15 7.65L31.15 7.65Q31.15 6.65 31.87 5.93 32.6 5.2 33.6 5.2ZM39.65 5.2L39.65 5.2Q40.7 5.2 41.42 5.93 42.15 6.65 42.15 7.65L42.15 7.65Q42.15 8.7 41.42 9.43 40.7 10.15 39.65 10.15L39.65 10.15Q38.65 10.15 37.92 9.43 37.2 8.7 37.2 7.65L37.2 7.65Q37.2 6.65 37.92 5.93 38.65 5.2 39.65 5.2ZM53.3-35.8L57.55-35.8 57.55-4.75Q57.55-4.15 57.4-3.55L57.4-3.55 60.05-3.55 60.05 0 58.3 0 56.65-1.75 56.5-1.75Q55.15 0 53 0L53 0 44.3 0 44.3-3.55 51.4-3.55Q52.35-3.55 52.9-4.3L52.9-4.3Q53.3-4.8 53.3-5.45L53.3-5.45 53.3-35.8ZM102.99-23L107.24-23 107.24-4.75Q107.24-2.8 105.92-1.4 104.59 0 102.74 0L102.74 0 93.09 0 91.49-1.75 91.34-1.75Q89.94 0 87.84 0L87.84 0 78.24 0 76.59-1.75 76.44-1.75Q75.04 0 72.94 0L72.94 0 59.69 0 59.69-3.55 71.29-3.55Q73.19-3.55 73.19-5.45L73.19-5.45 73.19-17.25 77.44-17.25 77.44-4.75Q77.44-4.1 77.34-3.55L77.34-3.55 86.19-3.55Q88.09-3.55 88.09-5.45L88.09-5.45 88.09-20.15 92.34-20.15 92.34-4.75Q92.34-4.1 92.19-3.55L92.19-3.55 101.09-3.55Q102.99-3.55 102.99-5.45L102.99-5.45 102.99-23ZM138.69-23.6L138.69-23.6Q139.69-23.6 140.41-22.88 141.14-22.15 141.14-21.15L141.14-21.15Q141.14-20.1 140.41-19.38 139.69-18.65 138.69-18.65L138.69-18.65Q137.69-18.65 136.96-19.38 136.24-20.1 136.24-21.15L136.24-21.15Q136.24-22.15 136.96-22.88 137.69-23.6 138.69-23.6ZM150.94-23L155.19-23 155.19-3.55 157.74-3.55 157.74 0 155.19 0Q155.04 5.95 151.19 9.1L151.19 9.1Q147.64 11.95 141.94 11.95L141.94 11.95 136.39 11.95Q130.84 11.95 127.34 9.3L127.34 9.3Q123.09 6.05 123.09-0.45L123.09-0.45 123.09-10.9 125.24-12.65 127.34-12.65 127.34-0.55Q127.34 4.45 129.96 6.43 132.59 8.4 139.14 8.4L139.14 8.4Q145.39 8.4 147.94 6.7L147.94 6.7Q150.94 4.65 150.94-0.55L150.94-0.55 150.94-23ZM166.59-23L170.84-23 170.84-4.75Q170.84-2.9 169.64-1.55L169.64-1.55Q168.29 0 166.29 0L166.29 0 157.59 0 157.59-3.55 164.69-3.55Q165.54-3.55 166.09-4.15L166.09-4.15Q166.59-4.65 166.59-5.45L166.59-5.45 166.59-23ZM161.84 5.2L161.84 5.2Q162.84 5.2 163.56 5.93 164.29 6.65 164.29 7.65L164.29 7.65Q164.29 8.7 163.56 9.43 162.84 10.15 161.84 10.15L161.84 10.15Q160.79 10.15 160.06 9.43 159.34 8.7 159.34 7.65L159.34 7.65Q159.34 6.65 160.06 5.93 160.79 5.2 161.84 5.2ZM167.89 5.2L167.89 5.2Q168.94 5.2 169.64 5.93 170.34 6.65 170.34 7.65L170.34 7.65Q170.34 8.7 169.64 9.43 168.94 10.15 167.89 10.15L167.89 10.15Q166.89 10.15 166.16 9.43 165.44 8.7 165.44 7.65L165.44 7.65Q165.44 6.65 166.16 5.93 166.89 5.2 167.89 5.2ZM181.28-19.95L181.28-23.3Q183.08-23.6 185.13-23.6L185.13-23.6Q190.68-23.6 194.08-20.25L194.08-20.25Q197.13-17.15 197.13-12.4L197.13-12.4 197.13-4.75Q197.13-2.8 195.88-1.45L195.88-1.45Q194.58 0 192.68 0L192.68 0 176.23 0 176.23-3.55 191.03-3.55Q192.88-3.55 192.88-5.45L192.88-5.45 192.88-11.8Q192.88-15.35 190.73-17.7L190.73-17.7Q188.43-20.1 183.63-20.15L183.63-20.15Q182.23-20.15 181.28-19.95L181.28-19.95ZM214.93-8.7L217.03-8.7 217.03-0.55Q217.03 4.4 219.63 6.4 222.23 8.4 228.68 8.4L228.68 8.4Q234.88 8.4 237.33 6.85L237.33 6.85Q240.48 4.95 240.63 0L240.63 0 236.83 0 235.08-2.15 235.08-3.55 246.23-3.55 246.23 0 244.88 0Q244.73 6.05 240.73 9.2L240.73 9.2Q237.23 11.95 231.63 11.95L231.63 11.95 226.08 11.95Q219.83 11.95 216.23 8.6L216.23 8.6Q212.78 5.35 212.78-0.45L212.78-0.45 212.78-6.95 214.93-8.7ZM251.58-35.8L255.83-35.8 255.83-4.75Q255.83-2.8 254.53-1.45L254.53-1.45Q253.18 0 251.28 0L251.28 0 242.58 0 242.58-3.55 249.68-3.55Q250.63-3.55 251.13-4.2L251.13-4.2Q251.58-4.75 251.58-5.45L251.58-5.45 251.58-35.8ZM262.72-35.8L266.97-35.8 266.97-0.5 264.82 1.25 262.72 1.25 262.72-35.8ZM319.77-35.8L324.02-35.8 324.02-4.75Q324.02-4.1 323.87-3.55L323.87-3.55 326.47-3.55 326.47 0 324.57 0 323.12-1.75 323.02-1.75Q321.62 0 319.52 0L319.52 0 290.92 0Q288.27 0 286.17-1.65L286.17-1.65Q283.07-4.1 283.07-8.25L283.07-8.25 283.07-17.65 285.22-19.4 287.32-19.4 287.32-8.25Q287.32-6.5 288.47-5.2L288.47-5.2Q289.92-3.55 292.12-3.55L292.12-3.55 317.87-3.55Q318.77-3.55 319.32-4.2L319.32-4.2Q319.77-4.75 319.77-5.45L319.77-5.45 319.77-35.8ZM296.22-19.4L300.17-19.4Q298.77-21.45 298.77-23.85L298.77-23.85Q298.77-26.8 300.57-28.45 302.37-30.1 305.57-30.1L305.57-30.1Q306.82-30.1 308.02-29.85L308.02-29.85 308.02-27.55Q306.97-27.9 305.87-27.9L305.87-27.9Q301.67-27.9 301.67-23.85L301.67-23.85Q301.67-21.85 302.64-20.63 303.62-19.4 305.17-19.4L305.17-19.4 310.77-19.4 310.77-18.3 309.72-17 296.22-17 296.22-19.4ZM335.12-35.8L339.37-35.8 339.37-4.75Q339.37-4.15 339.21-3.55L339.21-3.55 341.87-3.55 341.87 0 340.12 0 338.46-1.75 338.31-1.75Q336.96 0 334.81 0L334.81 0 326.12 0 326.12-3.55 333.21-3.55Q334.17-3.55 334.71-4.3L334.71-4.3Q335.12-4.8 335.12-5.45L335.12-5.45 335.12-35.8ZM350.51-23L354.76-23 354.76-4.75Q354.76-4.15 354.61-3.55L354.61-3.55 357.26-3.55 357.26 0 355.31 0 353.86-1.75 353.71-1.75Q352.36 0 350.21 0L350.21 0 341.51 0 341.51-3.55 348.61-3.55Q349.41-3.55 349.91-4.05L349.91-4.05Q350.51-4.6 350.51-5.45L350.51-5.45 350.51-23ZM346.21 5.2L346.21 5.2Q347.21 5.2 347.94 5.93 348.66 6.65 348.66 7.65L348.66 7.65Q348.66 8.7 347.94 9.43 347.21 10.15 346.21 10.15L346.21 10.15Q345.21 10.15 344.49 9.43 343.76 8.7 343.76 7.65L343.76 7.65Q343.76 6.65 344.49 5.93 345.21 5.2 346.21 5.2ZM352.26 5.2L352.26 5.2Q353.31 5.2 354.04 5.93 354.76 6.65 354.76 7.65L354.76 7.65Q354.76 8.7 354.04 9.43 353.31 10.15 352.26 10.15L352.26 10.15Q351.26 10.15 350.54 9.43 349.81 8.7 349.81 7.65L349.81 7.65Q349.81 6.65 350.54 5.93 351.26 5.2 352.26 5.2ZM365.91-35.8L370.16-35.8 370.16-4.75Q370.16-2.8 368.86-1.45L368.86-1.45Q367.51 0 365.61 0L365.61 0 356.91 0 356.91-3.55 364.01-3.55Q364.96-3.55 365.46-4.2L365.46-4.2Q365.91-4.75 365.91-5.45L365.91-5.45 365.91-35.8ZM380.61-19.95L380.61-23.3Q382.41-23.6 384.46-23.6L384.46-23.6Q390.01-23.6 393.41-20.25L393.41-20.25Q396.46-17.15 396.46-12.4L396.46-12.4 396.46-4.75Q396.46-2.8 395.21-1.45L395.21-1.45Q393.91 0 392.01 0L392.01 0 375.56 0 375.56-3.55 390.36-3.55Q392.21-3.55 392.21-5.45L392.21-5.45 392.21-11.8Q392.21-15.35 390.06-17.7L390.06-17.7Q387.76-20.1 382.96-20.15L382.96-20.15Q381.56-20.15 380.61-19.95L380.61-19.95Z" opacity="1" transform="matrix(1,0,0,1,0,0)" fill="#ffffff" class="slogan-text-1" data-fill-palette-color="quaternary" id="text-1"></path></svg></g></svg></g></svg></g></svg></g><g transform="matrix(1,0,0,1,52.93899399462909,0)"><svg viewBox="0 0 86.12201201074186 86.12201201074186" height="86.12201201074186" width="86.12201201074186"><g><svg xmlns="http://www.w3.org/2000/svg" xmlns:xlink="http://www.w3.org/1999/xlink" xml:space="preserve" style="shape-rendering:geometricPrecision;text-rendering:geometricPrecision;image-rendering:optimizeQuality;" viewBox="0 0 6 6" x="0" y="0" fill-rule="evenodd" clip-rule="evenodd" width="86.12201201074186" height="86.12201201074186" class="icon-icon-0" data-fill-palette-color="quaternary" id="icon-0"><g fill="#398378" data-fill-palette-color="quaternary"><g fill="#398378" data-fill-palette-color="quaternary"><path class="" d="M2.861 2.323l0.004-0.004c0.037-0.033 0.08-0.059 0.123-0.084 0.049-0.029 0.096-0.057 0.138-0.094l0.029-0.025 0.028 0.025c0.043 0.037 0.09 0.066 0.14 0.094 0.041 0.024 0.083 0.046 0.118 0.08 0.008 0.008 0.018 0.014 0.03 0.017l0.005 0c0.05 0.003 0.098 0.015 0.146 0.027 0.055 0.014 0.108 0.028 0.165 0.032l0.037 0.003 0.003 0.037c0.004 0.057 0.017 0.11 0.032 0.165 0.012 0.047 0.026 0.093 0.027 0.142 0 0.011 0.003 0.021 0.009 0.03l0.004 0.004c0.017 0.019 0.034 0.039 0.049 0.059 0.026 0.031 0.051 0.062 0.076 0.094 0.015 0.019 0.03 0.039 0.046 0.059 0.007 0.009 0.015 0.018 0.023 0.026l0.032 0.03-0.03 0.031c-0.046 0.049-0.078 0.101-0.112 0.159-0.024 0.041-0.046 0.083-0.08 0.118-0.004 0.004-0.012 0.017-0.016 0.026l-0.001 0.009c-0.003 0.05-0.015 0.098-0.027 0.146-0.014 0.055-0.028 0.108-0.032 0.165l-0.003 0.037-0.037 0.003c-0.057 0.004-0.11 0.017-0.165 0.032-0.046 0.012-0.092 0.026-0.14 0.027-0.007 0.001-0.021 0.005-0.031 0.008l-0.005 0.005c-0.037 0.033-0.08 0.059-0.123 0.084-0.049 0.029-0.096 0.057-0.139 0.094l-0.029 0.025-0.028-0.025c-0.043-0.037-0.09-0.066-0.139-0.094-0.041-0.024-0.083-0.046-0.118-0.08-0.004-0.004-0.017-0.012-0.026-0.016l-0.009-0.001c-0.05-0.003-0.098-0.015-0.146-0.027-0.055-0.014-0.108-0.027-0.165-0.032l-0.037-0.003-0.003-0.037c-0.004-0.057-0.017-0.11-0.032-0.165-0.012-0.046-0.026-0.092-0.027-0.139-0.001-0.007-0.005-0.021-0.008-0.032l-0.005-0.005c-0.033-0.037-0.059-0.08-0.084-0.123-0.029-0.049-0.057-0.096-0.094-0.139l-0.025-0.028 0.025-0.029c0.037-0.043 0.065-0.09 0.094-0.139 0.024-0.041 0.046-0.083 0.08-0.118 0.004-0.004 0.012-0.017 0.016-0.026l0.001-0.009c0.003-0.05 0.015-0.098 0.027-0.146 0.014-0.055 0.028-0.108 0.032-0.165l0.003-0.037 0.037-0.003c0.057-0.004 0.11-0.017 0.165-0.032 0.047-0.012 0.093-0.026 0.141-0.027 0.011 0 0.021-0.003 0.031-0.009z m0.76 0.481c-0.019-0.017-0.037-0.035-0.055-0.053-0.027-0.026-0.054-0.052-0.083-0.077-0.029-0.026-0.059-0.052-0.091-0.075-0.01-0.007-0.041-0.028-0.053-0.029l-0.368 0c-0.013 0-0.025 0.005-0.034 0.014l-0.256 0.256c-0.003 0.007-0.006 0.015-0.009 0.021-0.003 0.008-0.006 0.016-0.01 0.025l0 0.361c0 0.013 0.005 0.025 0.015 0.034l0.256 0.256c0.007 0.003 0.015 0.006 0.021 0.009 0.008 0.003 0.016 0.006 0.025 0.01l0.361 0c0.013 0 0.025-0.005 0.034-0.015l0.26-0.26c0.009-0.009 0.014-0.021 0.014-0.034l0-0.369c0-0.034-0.01-0.047-0.027-0.074z" fill="#ffffff" data-fill-palette-color="quaternary"></path><polygon class="" points="3.31979,3.45942 2.99099,3.45942 2.75854,3.22696 2.75853,2.89817 2.991,2.66571 3.31978,2.66571 3.55224,2.89817 3.55224,3.22696 " fill="#ffffff" data-fill-palette-color="quaternary"></polygon><path class="" d="M4.085 1.319c0.016 0.08 0.056 0.153 0.114 0.21 0.057 0.057 0.13 0.097 0.21 0.113l0.035 0.007 0 2.728-0.035 0.007c-0.08 0.016-0.153 0.056-0.21 0.113-0.057 0.057-0.097 0.13-0.114 0.21l-0.007 0.035-1.845 0-0.008-0.035c-0.016-0.08-0.056-0.153-0.113-0.21-0.057-0.057-0.13-0.097-0.21-0.113l-0.035-0.007 0-2.728 0.035-0.007c0.08-0.016 0.153-0.056 0.21-0.113 0.057-0.057 0.097-0.13 0.113-0.21l0.008-0.035 1.845 0 0.007 0.035z m-0.963 2.797c0.018 0.018 0.047 0.018 0.067 0 0.003-0.003 0.005-0.006 0.007-0.009 0.049-0.063 0.108-0.096 0.175-0.135 0.04-0.024 0.08-0.047 0.116-0.076l0.01-0.008 0.013-0.001c0.047-0.005 0.091-0.016 0.136-0.029 0.034-0.009 0.072-0.016 0.106-0.021 0.026-0.005 0.052-0.009 0.079-0.011 0.017-0.001 0.036-0.001 0.051 0.005 0.027-0.003 0.044-0.03 0.041-0.058-0.01-0.079 0.009-0.144 0.028-0.22 0.012-0.045 0.023-0.09 0.028-0.136l0.002-0.013 0.008-0.01c0.029-0.036 0.053-0.076 0.076-0.116 0.018-0.03 0.039-0.062 0.059-0.09 0.015-0.021 0.03-0.042 0.047-0.062 0.011-0.013 0.024-0.026 0.04-0.032 0.007-0.009 0.011-0.02 0.011-0.031 0-0.009-0.003-0.018-0.007-0.026-0.019-0.038-0.043-0.076-0.068-0.11-0.05-0.067-0.103-0.132-0.158-0.196l-0.008-0.01-0.002-0.013c-0.005-0.046-0.016-0.091-0.028-0.136-0.009-0.034-0.016-0.072-0.022-0.106-0.005-0.026-0.009-0.052-0.01-0.079-0.001-0.017-0.001-0.036 0.004-0.051-0.002-0.013-0.009-0.025-0.019-0.033-0.011-0.008-0.025-0.01-0.038-0.008-0.079 0.01-0.144-0.009-0.22-0.028-0.045-0.012-0.09-0.023-0.136-0.028l-0.013-0.002-0.01-0.008c-0.036-0.029-0.076-0.053-0.116-0.076-0.067-0.039-0.126-0.07-0.174-0.134-0.012-0.016-0.032-0.028-0.052-0.023-0.012 0.003-0.022 0.011-0.03 0.021-0.049 0.063-0.109 0.096-0.176 0.136-0.04 0.024-0.079 0.047-0.115 0.076l-0.01 0.008-0.013 0.002c-0.047 0.005-0.091 0.016-0.136 0.028-0.043 0.011-0.094 0.014-0.138 0.019-0.032 0.003-0.066 0.007-0.097 0.014-0.014 0.003-0.027 0.009-0.036 0.021-0.022 0.029-0.022 0.094-0.023 0.13-0.001 0.04-0.001 0.082-0.011 0.121-0.012 0.045-0.023 0.09-0.029 0.136l-0.001 0.013-0.008 0.01c-0.029 0.036-0.053 0.076-0.076 0.116-0.04 0.068-0.077 0.128-0.14 0.179l-0.004 0.003c-0.021 0.022-0.014 0.055 0.009 0.074 0.062 0.049 0.096 0.108 0.135 0.175 0.024 0.04 0.047 0.08 0.076 0.116l0.008 0.01 0.001 0.013c0.005 0.047 0.016 0.091 0.029 0.136 0.02 0.077 0.036 0.145 0.027 0.225l0 0.006c0 0.014 0.007 0.027 0.018 0.036 0.011 0.009 0.026 0.011 0.04 0.01 0.079-0.01 0.144 0.009 0.22 0.028 0.045 0.012 0.09 0.023 0.136 0.029l0.013 0.001 0.01 0.008c0.036 0.029 0.076 0.053 0.116 0.076 0.068 0.04 0.128 0.077 0.178 0.14l0.004 0.004z" fill="#ffffff" data-fill-palette-color="quaternary"></path><path class="" d="M1.438 5.17l0-4.314 3.435 0 0 4.314-3.435 0z m2.687-0.332c0.027 0 0.048-0.022 0.048-0.048 0-0.085 0.034-0.165 0.094-0.225 0.06-0.06 0.14-0.094 0.225-0.093 0.027 0 0.048-0.022 0.048-0.049l0-2.821c0-0.027-0.022-0.048-0.048-0.048-0.085 0-0.165-0.034-0.225-0.093-0.06-0.06-0.094-0.14-0.094-0.225 0-0.027-0.022-0.048-0.048-0.048l-1.939 0c-0.027 0-0.048 0.022-0.048 0.048 0 0.085-0.034 0.165-0.094 0.225-0.06 0.06-0.14 0.094-0.225 0.093-0.027 0-0.048 0.022-0.048 0.048l0 2.821c0 0.027 0.022 0.048 0.048 0.049 0.085 0 0.165 0.034 0.225 0.093 0.06 0.06 0.094 0.14 0.094 0.225 0 0.027 0.022 0.048 0.048 0.048l1.939 0z" fill="#ffffff" data-fill-palette-color="quaternary"></path><path class="" d="M5.079 5.969l0 0.003-3.537 0 0.053-0.07c0.062-0.081 0.093-0.181 0.093-0.283l0-0.019c-0.004-0.095-0.035-0.188-0.093-0.264l-0.053-0.07 3.494 0c0.094 0 0.183 0.037 0.249 0.103 0.139 0.139 0.139 0.359 0 0.499-0.056 0.056-0.128 0.091-0.206 0.101z m-2.287-0.35c0 0.027 0.022 0.048 0.048 0.048l2.196 0c0.027 0 0.048-0.022 0.048-0.048 0-0.027-0.022-0.048-0.048-0.049l-2.196 0c-0.027 0-0.048 0.022-0.048 0.049z" fill="#ffffff" data-fill-palette-color="quaternary"></path><path class="" d="M5.021 0.856c0.005 0 0.01 0 0.015 0 0.094 0 0.183 0.037 0.249 0.104 0.066 0.066 0.104 0.155 0.103 0.249l0 4.118-0.07-0.057c-0.08-0.065-0.179-0.1-0.282-0.1l-0.067 0 0-4.315 0.045 0.001c0.003 0 0.005 0 0.007 0z" fill="#ffffff" data-fill-palette-color="quaternary"></path></g></g><rect class="" width="6.82666" height="6.82666" fill="none"></rect></svg></g></svg></g><g></g></svg></g></svg></g></svg></g></svg></g><defs></defs></svg><rect width="320" height="360" fill="none" stroke="none" visibility="hidden"></rect></g></svg></g></svg>