<svg xmlns="http://www.w3.org/2000/svg" xmlns:xlink="http://www.w3.org/1999/xlink" enable-background="new 0 0 64 64" viewBox="0 0 64 64" id="muslim"><linearGradient id="a" x1="-1179.326" x2="-1116.326" y1="-87.55" y2="-87.55" gradientTransform="rotate(-90 -498.138 -617.688)" gradientUnits="userSpaceOnUse"><stop offset=".062" stop-color="#29abe2"></stop><stop offset=".939" stop-color="#0071bc"></stop></linearGradient><circle cx="32" cy="32" r="31.5" fill="url(#a)"></circle><g><defs><circle id="b" cx="32" cy="32" r="31.5" transform="rotate(-8.557 32.006 32.005)"></circle></defs><clipPath id="c"><use overflow="visible" xlink:href="#b"></use></clipPath><path fill="#deb18a" d="M39.2,31.1v4.7c0,0,0,0,0,0c-0.1,0.1-1.2,2.7-2.6,5.9c-0.4,0.9-0.8,1.9-1.2,2.9
			c-0.8,3-1.3,4.3-2.1,5.8c-0.3,0.6-1.3,2.7-1.3,2.8c0,0,0,0,0,0c0,0-1.5-3-2.2-5.2c-0.3-0.8-0.5-1.7-0.9-2.7
			c-1.4-4.4-3.2-9.6-3.2-9.6L24.9,36l0.7-0.2v-4.7H39.2z" clip-path="url(#c)"></path><path fill="#f0d0b3" d="M44.4,20.6v2.1c0,0.5-0.2,0.9-0.5,1.3c-0.4,0.4-0.9,0.7-1.5,0.7c0,5.2-6.2,11.1-10,11.1
			c-3.7,0-10-5.9-10-11.1c-1,0-1.8-0.7-1.9-1.6c0-0.1,0-0.3,0-0.4v-2.1c0-0.6,0.3-1.2,0.7-1.5c0.2-0.2,0.5-0.3,0.8-0.4l-0.3-4.2
			c0-1.8,0.6-3.5,1.5-4.9c2-3,5.5-5,9.2-5c3,0,6,1.3,8,3.5c1.7,1.7,2.7,4,2.7,6.5l-0.3,4.2C43.8,18.9,44.4,19.7,44.4,20.6z" clip-path="url(#c)"></path><path fill="#656e7b" d="M57.5,45.5v24.8H6.5V45.5c0-2.7,2-5.1,5-6.1L24.9,36
			l0.8-0.2c0,0,1.8,5.3,3.2,9.6c0.3,0.9,0.6,1.9,0.9,2.7c0.7,2.1,2.2,5.2,2.2,5.2c0,0,0,0,0,0c0.1-0.1,1-2.2,1.3-2.8
			c0.8-1.6,1.3-2.9,2.1-5.8c0.4-1,0.8-2,1.2-2.9c1.4-3.2,2.5-5.8,2.6-5.9c0,0,0,0,0,0l0.5,0.1l3.4,0.6l0.1,0l1.3,0.4l0,0l4.1,1.3
			l3.9,1.2C55.5,40.4,57.5,42.8,57.5,45.5z" clip-path="url(#c)"></path><path fill="#e6e7e8" d="M29.2 45.3c1.1 3.1 2.2 6.2 2.8 8 0 0-1.5-3-2.2-5.2-.3-.8-.5-1.7-.9-2.7L29.2 45.3zM35.4 44.6c-.8 3-1.3 4.3-2.1 5.8-.3.6-1.3 2.7-1.3 2.8C32.6 51.3 34 47.9 35.4 44.6z" clip-path="url(#c)"></path><path fill="#d0d2d3" d="M32,53.3l-4.6-5.4l-2.2-2.6l0.5-9.4
			c0,0,1.8,4.8,3.5,9.5C30.3,48.4,31.4,51.5,32,53.3z" clip-path="url(#c)"></path><polygon fill="#e6e6e6" points="24.8 36.1 24.6 36.5 18.8 49.3 25.2 45.2 25.7 35.8" clip-path="url(#c)"></polygon><path fill="#d0d2d3" d="M39.8,45.2l-2.1,2.2L33,52.2l-1,1.1
			c0.6-1.9,2-5.4,3.4-8.7c0.4-1,0.8-2,1.2-2.9c1.4-3.3,2.6-5.9,2.6-5.9L39.8,45.2z" clip-path="url(#c)"></path><polygon fill="#e6e6e6" points="40.1 36 40.3 36.5 46.1 49.3 39.8 45.2 39.2 35.8" clip-path="url(#c)"></polygon><path fill="#404041" d="M42.1,21.5c0,0,0.3-4.4-0.5-7.4c-0.5,0.8-1.4,1.3-2.5,1.3c-0.9,0-1.6-0.3-2.2-0.9
			c-3.1,0.2-6.8-0.7-10.5-3.2C23,13.7,23,21.5,23,21.5s-1.6-3.7-1.8-7.8c0,0,0-0.1,0-0.1c1-5.7,5.6-10,11.1-10
			c5.5,0,10,4.2,11.1,9.8c0,0,0,0,0,0c0,0.1,0,0.2,0,0.3C43.6,17.8,42.1,21.5,42.1,21.5z" clip-path="url(#c)"></path><path fill="#404041" d="M42.9,22.3c-0.2-2.2,0.3-3-0.3-3.4c-0.6-0.4-0.5,2-0.8,3.7c-0.3,1.6-1.5,3.9-2.8,5
			c-0.2,0.2-0.4,0.3-0.6,0.4c-0.4,0.2-0.8,0.4-1.2,0.7c-0.8,0.6-1.7,1.4-2,2.3l0,0c0,0.3-0.2,0.5-0.6,0.5c-0.8,0-0.7-1-2.1-1h0l0,0
			c-1.4,0-1.3,1-2.1,1c-0.4,0-0.6-0.2-0.6-0.5l0,0c-0.4-0.9-1.2-1.7-2-2.3c-0.4-0.3-0.8-0.5-1.2-0.7c-0.2-0.1-0.4-0.3-0.6-0.4
			c-1.2-1.1-2.5-3.3-2.8-5C23,21,23.1,18.6,22.5,19c-0.5,0.3,0,1.2-0.3,3.4c-0.2,2.1-2.4,3.8-1.9,9.5c0.5,5.7,3.4,11,5.2,12.8
			c1.8,1.8,4.5,3.3,7.1,3.3l0,0h0c2.5,0,5.3-1.5,7.1-3.3c1.8-1.8,4.7-7.1,5.2-12.8C45.3,26.1,43.1,24.4,42.9,22.3z" clip-path="url(#c)"></path><path fill="#f1f1f2" d="M43.5,13.8C43.4,13.8,43.4,13.8,43.5,13.8
			c-2.9-2.1-6.8-3.4-11.1-3.4c-4.3,0-8.2,1.3-11.1,3.4c0,0,0,0,0,0c0,0,0-0.1,0-0.1c1-5.7,5.6-10,11.1-10c5.5,0,10,4.2,11.1,9.8
			c0,0,0,0,0,0C43.4,13.6,43.4,13.7,43.5,13.8z" clip-path="url(#c)"></path></g></svg>