<svg xmlns="http://www.w3.org/2000/svg" data-name="Layer 1" viewBox="0 0 100 100" id="customer-review"><polygon fill="#ced9df" points="81.09 21.07 87.87 21.07 84.48 11.69 81.09 21.07"></polygon><path fill="#70c8f2" d="M11.5,93.75H70V9.06H11.5ZM50.75,24.07H65.23v1.48h0V27H50.75Zm0,9.85H65.23V35.4h0v1.48H50.75Zm0,32H65.23v1.48h0v1.48H50.75Zm0,9.85H65.23v1.48h0v1.48H50.75ZM31,14.22A16.26,16.26,0,1,1,14.76,30.48,16.28,16.28,0,0,1,31,14.22Zm0,41.86A16.26,16.26,0,1,1,14.76,72.34,16.28,16.28,0,0,1,31,56.08Z"></path><path fill="#333" d="M71.45,6.11H10A1.48,1.48,0,0,0,8.54,7.58V95.23A1.48,1.48,0,0,0,10,96.71H71.45a1.48,1.48,0,0,0,1.48-1.48V7.58A1.48,1.48,0,0,0,71.45,6.11ZM70,93.75H11.5V9.06H70Z"></path><path fill="#fecb37" d="M17.72,30.48A13.3,13.3,0,1,0,31,17.18,13.3,13.3,0,0,0,17.72,30.48ZM25.08,26,27.3,24,31,28.24,34.72,24,36.94,26l-4,4.52,4,4.52-2.22,1.94L31,32.72,27.3,36.94,25.08,35l4-4.52Z"></path><path fill="#333" d="M31,46.73A16.26,16.26,0,1,0,14.76,30.48,16.27,16.27,0,0,0,31,46.73Zm13.3-16.25A13.3,13.3,0,1,1,31,17.18,13.3,13.3,0,0,1,44.31,30.48Z"></path><polygon fill="#333" points="27.3 36.94 31.01 32.72 34.72 36.94 36.94 35 32.98 30.48 36.94 25.96 34.72 24.01 31.01 28.24 27.3 24.01 25.08 25.96 29.05 30.48 25.08 35 27.3 36.94"></polygon><polygon fill="#fff" points="65.23 25.55 65.23 24.07 50.75 24.07 50.75 27.03 65.23 27.03 65.23 25.55"></polygon><polygon fill="#fff" points="65.23 35.4 65.23 33.92 50.75 33.92 50.75 36.88 65.23 36.88 65.23 35.4"></polygon><path fill="#fecb37" d="M17.72,72.34A13.3,13.3,0,1,0,31,59,13.3,13.3,0,0,0,17.72,72.34Zm6.21-2.51h2.95v4.3l12.2-6.36,1.37,2.62L23.93,79Z"></path><path fill="#333" d="M31,88.59A16.26,16.26,0,1,0,14.76,72.34,16.27,16.27,0,0,0,31,88.59Zm13.3-16.25A13.3,13.3,0,1,1,31,59,13.3,13.3,0,0,1,44.31,72.34Z"></path><polygon fill="#333" points="39.08 67.77 26.88 74.13 26.88 69.83 23.93 69.83 23.93 79 40.45 70.39 39.08 67.77"></polygon><polygon fill="#fff" points="65.23 67.41 65.23 65.93 50.75 65.93 50.75 68.89 65.23 68.89 65.23 67.41"></polygon><polygon fill="#fff" points="65.23 77.26 65.23 75.78 50.75 75.78 50.75 78.74 65.23 78.74 65.23 77.26"></polygon><path fill="#ec6568" d="M88.5,90V87.15h-8V90a4,4,0,1,0,8,0Z"></path><rect width="8.04" height="54.78" x="80.46" y="29.41" fill="#ec6568"></rect><rect width="8.04" height="2.43" x="80.46" y="24.03" fill="#50b792"></rect><path fill="#333" d="M91,21.07,84.48,3,78,21.07h-.44V90a7,7,0,0,0,13.95,0v-69ZM80.46,90V87.15h8V90a4,4,0,1,1-8,0ZM79,85.67Zm11,0ZM88.5,84.19h-8V29.41h8ZM80.46,24h8v2.43h-8Zm.63-3,3.39-9.38,3.39,9.38Z"></path></svg>