<svg xmlns="http://www.w3.org/2000/svg" viewBox="0 0 48 48" id="growing"><g data-name="Growing Tree"><path fill="#f6ccaf" d="M47 28.74c0 1.68.24 1-12.68 13.92A8 8 0 0 1 28.67 45H11V33.48A14.41 14.41 0 0 1 19.1 31c12 0 12.19-.31 13.37.88a3 3 0 0 1 .78 2.88l8.53-8A3 3 0 0 1 47 28.74Z"></path><path fill="#ffdec7" d="M46.59 27.24c-.26.48.55-.4-12.27 12.42A8 8 0 0 1 28.67 42H11v-8.52a14.11 14.11 0 0 1 6.24-2.35c1.42-.23 13.31-.13 13.51-.13a3 3 0 0 1 2.5 3.72c4.45-4.18-6.51 6.13 8.53-8a3 3 0 0 1 4.81.52Z"></path><path fill="#ffdec7" d="M43.84 25.77c-1.48.1-1.67.59-7.06 5.66A5.78 5.78 0 0 0 35 28.52c3.85-3.85 4.26-4.59 5.76-4.74a2.79 2.79 0 0 1 1.91.45 3 3 0 0 1 1.17 1.54Z"></path><path fill="#ffdec7" d="M40.74 23.78c-1.5.15-1.84.82-5.76 4.74a6 6 0 0 0-3.06-1.44c-.05-.33-.44.18 3.86-4.12a3 3 0 0 1 4.96.82Z"></path><rect width="10" height="17" x="1" y="30" fill="#9dcc6b" rx="2"></rect><path fill="#b5e08c" d="M11 32c0 13.72-.1 13 0 13a7 7 0 0 1-7-7v-8h5a2 2 0 0 1 2 2Z"></path><path fill="#9dcc6b" d="M41 1v2a8 8 0 0 1-8 8h-4V9a8 8 0 0 1 8-8Z"></path><path fill="#b5e08c" d="M41 1a8 8 0 0 1-8 8h-4a8 8 0 0 1 8-8Z"></path><path fill="#9dcc6b" d="M23 12v2h-4a8 8 0 0 1-8-8V4h4a8 8 0 0 1 8 8Z"></path><path fill="#b5e08c" d="M23 12h-4a8 8 0 0 1-8-8h4a8 8 0 0 1 8 8Z"></path><path fill="#be927c" d="M33.25 34.76a3 3 0 0 0-.78-2.88C31.31 30.72 31.31 31 19.1 31a14.27 14.27 0 0 0-3.92.54 6 6 0 0 1 4.9-4.46 6 6 0 0 1 11.84 0 6 6 0 0 1 4.86 4.35Z"></path><path fill="#a07765" d="M33.25 34.76a3 3 0 0 0-.78-2.88C31.31 30.72 31.31 31 19.1 31a14.27 14.27 0 0 0-3.92.54 5.91 5.91 0 0 1 1.13-2.27c1.85-.36 1.87-.27 14-.27a3 3 0 0 1 2.9 3.76L36.19 30a5.52 5.52 0 0 1 .59 1.44Z"></path><path d="M44.49 24.79a3.89 3.89 0 0 0-3.16-2 4 4 0 0 0-6.26-.52L32.31 25A7 7 0 0 0 27 21.08v-7.54L29.3 12H33a9 9 0 0 0 9-9V1a1 1 0 0 0-1-1h-4a9 9 0 0 0-9 9v1.46l-1 .67V1a1 1 0 0 0-2 0v13.13l-1-.67V12a9 9 0 0 0-9-9h-4a1 1 0 0 0-1 1v2a9 9 0 0 0 9 9h3.7l2.3 1.54v4.55a7 7 0 0 0-5.77 5.14 6.94 6.94 0 0 0-4.84 4.51 13.45 13.45 0 0 0-2.39 1V30a1 1 0 0 0-1-1H1a1 1 0 0 0-1 1v17a1 1 0 0 0 1 1h10a1 1 0 0 0 1-1v-1h16.67A9 9 0 0 0 35 43.37l11.8-11.81a4 4 0 0 0-2.31-6.77ZM30 9a7 7 0 0 1 7-7h3v1a7 7 0 0 1-7 7h-.7l3.25-2.17a1 1 0 0 0-1.1-1.66C29.51 9.46 30 9.19 30 9Zm-11 4a7 7 0 0 1-7-7V5h3a7 7 0 0 1 7 7c0 .2.53.49-4.45-2.83a1 1 0 0 0-1.1 1.66L19.7 13Zm23.23 12.18c-.87.43-.85.52-5 4.67a6.6 6.6 0 0 0-.85-1.32c3.6-3.6 3.45-3.63 4.49-3.76a1.7 1.7 0 0 1 1.36.41Zm-5.74-1.52a2.1 2.1 0 0 1 2.57-.38c-.81.45-.92.66-4.17 3.92a7 7 0 0 0-1.26-.68Zm-15.42 3.57c.82-5.49 8.8-5.66 9.83-.19.31 1.7 1.43.46 3.42 2.23a4.82 4.82 0 0 1 1.39 2.1l-1.53 1.53a4 4 0 0 0-3.83-2.9c-12.28 0-12-.05-13.45.16 1.84-2.67 3.95-1.47 4.17-2.93ZM10 46H2V31h8Zm35.42-15.85L33.61 42a6.94 6.94 0 0 1-4.94 2H12V34c4-2.48 6.34-2 18.35-2a2 2 0 0 1 0 4H21.6a1 1 0 0 0 0 2h8.75a4 4 0 0 0 3.45-2c.29-.11-.44.56 8.68-8.56a2 2 0 1 1 2.94 2.71Z"></path></g></svg>